<svg width="337.000000" height="295.000000" viewBox="0 0 337 295" fill="none" xmlns="http://www.w3.org/2000/svg" xmlns:xlink="http://www.w3.org/1999/xlink">
	<desc>
			Created with Pixso.
	</desc>
	<defs/>
	<path id="Vector" d="M8.21 7.27L20.86 7.27L20.95 6.68L294.73 6.68C294.64 4.93 294.55 3.81 294.51 3.36L294.28 0L1.4 0L1.17 3.36C0.77 8.84 -6.81 122.46 22.29 193.35C15.92 171.8 13.15 146.98 12.38 122.64C5.48 71.6 7.5 20.65 8.21 7.27Z" fill="#C32C2C" fill-opacity="1.000000" fill-rule="nonzero"/>
	<path id="Vector" d="M252.59 216.43C209.15 275.87 151.05 280.18 147.82 280.35C144.55 280.18 86.49 275.82 43.05 216.43C38.88 210.72 35.2 204.3 31.93 197.26C35.2 206.91 39.37 215.66 44.48 223.11C85.37 282.55 147.42 286.86 150.91 287.04C151.77 287 156.16 286.68 163.02 285.43C184.58 280.76 225.25 266.12 258.42 220.69C298.23 166.23 296.57 49.87 295.05 13.91L287.74 13.91C289.18 48.75 290.61 164.39 252.59 216.43Z" fill="#C32C2C" fill-opacity="1.000000" fill-rule="nonzero"/>
	<path id="Vector" d="M95.05 61.14C93.04 62.53 91.38 64.15 90.08 65.9L90.08 74.07L107.56 74.07L107.56 81.79C103.98 83.54 99.4 84.44 93.26 84.44C92.54 84.44 91.83 84.39 91.15 84.39C95.37 88.62 102.54 91.17 111.51 91.17C118.1 91.17 123.12 90.28 127.15 88.53L127.92 80.8L109.09 80.8L110.34 67.87L131.01 67.87L131.01 61.18L95.05 61.18L95.05 61.14Z" fill="#C32C2C" fill-opacity="1.000000" fill-rule="nonzero"/>
	<path id="Vector" d="M72.46 97.1C63.76 91.26 59.01 83.05 59.95 73.4L59.95 73.22C61.79 54.63 85.19 40.08 114.83 40.08C118.14 40.08 121.28 40.22 124.24 40.49C115.59 35.96 105.41 33.4 91.69 33.4C64.12 33.4 43.72 47.94 43.72 66.53L43.72 66.71C43.72 81.03 55.15 92.25 72.46 97.1Z" fill="#C32C2C" fill-opacity="1.000000" fill-rule="nonzero"/>
	<path id="Vector" d="M183.33 98.4L196.96 98.4L189.34 85.79L184.58 85.79L183.33 98.4Z" fill="#C32C2C" fill-opacity="1.000000" fill-rule="nonzero"/>
	<path id="Vector" d="M187.45 56.56L185.93 71.96L189.42 71.96C192.97 68.32 195.07 63.21 195.07 56.56L187.45 56.56Z" fill="#C32C2C" fill-opacity="1.000000" fill-rule="nonzero"/>
	<path id="Vector" d="M145.04 55.17L145.04 67.87L154.41 67.87L151.59 96.47C150.33 97.14 148.99 97.77 147.6 98.4L160.69 98.4L160.69 79.1L167.64 79.1L168.31 80.22L169.79 65.23L160.73 65.23L160.73 49.83L171.04 49.83C171.13 49.83 171.22 49.83 171.31 49.83L172.16 41.3L190.01 41.3C186.2 37.08 180.28 34.61 171.76 34.61L145.09 34.61L145.09 45.2C147.86 46.37 150.51 47.72 152.98 49.2L145.04 55.17Z" fill="#C32C2C" fill-opacity="1.000000" fill-rule="nonzero"/>
	<path id="Vector" d="M219.91 48.21C220.54 48.93 221.08 49.69 221.57 50.55C222.64 49.78 223.81 49.38 225.11 49.38C230.71 49.38 234.43 57.28 234.43 66.57L234.43 66.75C234.43 75.96 230.71 83.76 225.2 83.76C222.02 83.76 219.37 81.16 217.76 77.17C215.47 79.59 212.6 81.52 209.37 82.91L217.22 97.05C219.6 98.76 222.29 99.7 225.11 99.7C229.37 99.7 233.22 97.59 236.41 93.96C234.17 88.35 233.22 81.25 233.99 73.44L233.99 73.26C234.88 64.15 237.93 55.89 242.33 49.92C239.05 40.04 232.78 33.44 225.2 33.44C219.68 33.44 214.8 37.03 211.3 42.82C215.02 43.94 217.89 45.79 219.91 48.21Z" fill="#C32C2C" fill-opacity="1.000000" fill-rule="nonzero"/>
	<path id="Vector" d="M205.52 66.71C205.52 67.2 205.52 67.74 205.52 68.24C206.28 67.16 206.73 65.85 206.86 64.37L206.86 64.19C207.04 62.26 206.68 60.74 205.88 59.53C205.61 61.77 205.43 64.1 205.43 66.53L205.43 66.71L205.52 66.71Z" fill="#C32C2C" fill-opacity="1.000000" fill-rule="nonzero"/>
	<path id="Vector" d="M129.04 174.59L129.35 178.22L138.36 178.22L141.1 170.59L141.1 149.94L129.04 174.59Z" fill="#C32C2C" fill-opacity="1.000000" fill-rule="nonzero"/>
	<path id="Vector" d="M136.03 114.47L126.43 114.47L112.94 151.55L112.45 156.49C111.51 166.19 108.28 173.37 103.3 178.18L113.43 178.18L126.12 143.2L127.29 155.68L137.78 134.23L136.03 114.47Z" fill="#C32C2C" fill-opacity="1.000000" fill-rule="nonzero"/>
	<path id="Vector" d="M154.54 133.69L161.49 114.47L151.32 114.47L148.85 121.16L154.54 121.16L154.54 133.69Z" fill="#C32C2C" fill-opacity="1.000000" fill-rule="nonzero"/>
	<path id="Vector" d="M82.86 170.14C89.72 170.14 94.51 165.96 95.41 157.03L98.95 121.16L100.12 121.16L100.12 114.47L84.34 114.47L84.34 150.34C84.34 159.28 80.21 163.45 73.89 163.45C73.76 163.45 73.62 163.45 73.44 163.45C74.7 167.98 78.11 170.14 82.86 170.14Z" fill="#C32C2C" fill-opacity="1.000000" fill-rule="nonzero"/>
	<path id="Vector" d="M56.05 156.94L59.55 121.16L63.49 121.16L63.49 114.47L47.71 114.47L47.71 150.25C47.71 163.05 51.88 171.4 59.05 175.75C56.36 171.13 55.24 164.89 56.05 156.94Z" fill="#C32C2C" fill-opacity="1.000000" fill-rule="nonzero"/>
	<path id="Vector" d="M225.47 121.16C228.11 121.16 230.67 121.25 233.14 121.43C225.38 116.99 214.85 114.47 201.93 114.47L170.06 114.47L170.06 123.09L171 121.16L181.98 121.16L170.06 145.5L170.06 178.18L185.57 178.18L191.17 121.16L225.47 121.16Z" fill="#C32C2C" fill-opacity="1.000000" fill-rule="nonzero"/>
	<path id="Vector" d="M247.17 152.95C248.15 142.76 239.01 136.74 224.21 136.74L221.52 136.74C223.77 139.26 225.02 142.49 225.02 146.26L225.02 146.44C225.02 154.07 220 159.28 211.79 161.43L211.03 169.25L221.03 169.25C231.16 169.25 239.23 166.51 243.62 161.48C245.02 159.46 246.14 157.3 246.9 155.02C247.03 154.39 247.12 153.76 247.21 153.13L247.17 152.95Z" fill="#C32C2C" fill-opacity="1.000000" fill-rule="nonzero"/>
	<path id="Vector" d="M78.55 224.51L80.84 201.12L93.8 201.12L93.8 194.43L74.83 194.43L74.83 217.82C74.83 222.13 76.18 225.68 78.6 228.46C78.46 227.21 78.42 225.9 78.55 224.51Z" fill="#C32C2C" fill-opacity="1.000000" fill-rule="nonzero"/>
	<path id="Vector" d="M111.51 233.13C119.71 233.13 125.32 230.39 125.85 224.56L128.14 201.12L137.73 201.12L137.73 194.43L118.77 194.43L118.77 217.87C118.77 223.7 113.84 226.44 106.22 226.44C103.35 226.44 100.88 226.04 98.86 225.19C98.91 230.57 103.84 233.13 111.51 233.13Z" fill="#C32C2C" fill-opacity="1.000000" fill-rule="nonzero"/>
	<path id="Vector" d="M189.51 214.86L186.11 221.82L197.54 221.82C205.88 221.82 212.24 219.62 213.86 216.34L213.9 216.21C215.65 212.61 211.26 210.77 202.78 210.77L199.15 210.77C197.67 212.84 194.18 214.32 189.51 214.86Z" fill="#C32C2C" fill-opacity="1.000000" fill-rule="nonzero"/>
	<path id="Vector" d="M209.42 201.07C213.86 201.07 217.85 201.3 221.34 201.75C217.98 197.03 208.34 194.39 194.31 194.39L159.97 194.39L144.82 236.05L155.35 236.05L172.48 201.07L209.42 201.07Z" fill="#C32C2C" fill-opacity="1.000000" fill-rule="nonzero"/>
	<path id="Vector" d="M294.73 6.68C294.82 8.48 294.96 10.95 295.09 13.96L328.04 13.96C327.1 36.63 319.61 166.95 269.94 223.12C230.18 268.1 184.45 281.52 163.06 285.47C154.36 287.36 148.72 287.63 148 287.67L147.86 287.67L147.73 287.67C145.13 287.58 83.89 284.57 37.22 220.74C31.39 212.79 26.46 203.5 22.29 193.35C26.06 206.15 31.12 217.77 37.8 227.47C81.69 291.26 147.33 294.27 150.1 294.36L150.24 294.36L150.37 294.36C153.15 294.27 219.37 291.26 275.86 227.43C331.99 163.94 335.89 16.33 336.02 10.05L336.11 6.68L294.73 6.68Z" fill="#053579" fill-opacity="1.000000" fill-rule="nonzero"/>
	<path id="Vector" d="M27.58 13.96L287.78 13.96C287.7 11.17 287.56 8.93 287.47 7.27L20.86 7.27L20.36 10.05C19.74 13.73 10.68 66.75 12.38 122.65C16.01 149.27 22.02 175.93 31.98 197.26C10.46 134.27 24.53 33.62 27.58 13.96Z" fill="#053579" fill-opacity="1.000000" fill-rule="nonzero"/>
	<path id="Vector" d="M20.86 7.26L287.47 7.26C287.56 8.93 287.65 11.22 287.78 13.96L295.09 13.96C294.96 10.95 294.82 8.48 294.73 6.68L20.99 6.68L20.86 7.26Z" fill="#072244" fill-opacity="1.000000" fill-rule="nonzero"/>
	<path id="Vector" d="M147.73 287.68L147.86 287.68L148 287.68C148.76 287.63 154.37 287.36 163.06 285.48C156.2 286.73 151.81 287.05 150.96 287.09C147.46 286.91 85.41 282.56 44.53 223.16C39.42 215.71 35.29 206.96 31.98 197.3C22.02 175.93 16.01 149.31 12.38 122.69C13.15 146.98 15.88 171.8 22.29 193.4C26.46 203.55 31.39 212.84 37.22 220.78C83.84 284.58 145.13 287.59 147.73 287.68Z" fill="#072244" fill-opacity="1.000000" fill-rule="nonzero"/>
	<path id="Vector" d="M145.04 67.83L131.01 67.83L131.01 89.69C121.55 95.35 108.55 99.61 92.23 99.61C85.1 99.61 78.42 98.71 72.46 97.05C81.2 102.89 93.93 106.3 108.9 106.3C124.37 106.3 137.42 102.98 147.64 98.31L145.08 98.31L145.08 67.83L145.04 67.83Z" fill="#053579" fill-opacity="1.000000" fill-rule="nonzero"/>
	<path id="Vector" d="M113.43 55.12C107.07 51.31 100.79 49.11 91.87 49.11C78.96 49.11 69.01 56.74 69.01 66.48L69.01 66.66C69.01 76.5 78.11 83.68 91.15 84.35C88.19 81.39 86.72 77.62 87.16 73.35L87.16 73.17C87.43 70.57 88.46 68.1 90.08 65.85L90.08 61.1L95.05 61.1C99.81 57.82 106.31 55.8 113.43 55.8C123.03 55.8 129.58 58 136.03 61.82L145.04 55.12L145.04 45.25C139.12 42.78 132.35 41.16 124.24 40.44C125.5 41.12 126.75 41.79 127.96 42.55L113.43 55.12Z" fill="#053579" fill-opacity="1.000000" fill-rule="nonzero"/>
	<path id="Vector" d="M59.95 73.22L59.95 73.4C59.01 83.05 63.76 91.26 72.46 97.1C78.42 98.76 85.1 99.66 92.23 99.66C108.55 99.66 121.6 95.39 131.01 89.74L131.01 67.87L110.34 67.87L109.09 80.8L127.92 80.8L127.15 88.53C123.12 90.28 118.1 91.17 111.51 91.17C102.54 91.17 95.37 88.62 91.15 84.39C78.11 83.68 69.01 76.54 69.01 66.71L69.01 66.53C69.01 56.78 78.96 49.16 91.87 49.16C100.79 49.16 107.07 51.35 113.43 55.17L128 42.6C126.79 41.83 125.59 41.16 124.28 40.49C121.33 40.22 118.23 40.08 114.87 40.08C85.19 40.08 61.79 54.63 59.95 73.22Z" fill="#072244" fill-opacity="1.000000" fill-rule="nonzero"/>
	<path id="Vector" d="M95.05 61.14L90.08 61.14L90.08 65.9C91.38 64.15 93.04 62.53 95.05 61.14Z" fill="#053579" fill-opacity="1.000000" fill-rule="nonzero"/>
	<path id="Vector" d="M152.93 49.29C150.46 47.76 147.82 46.46 145.04 45.3L145.04 55.17L152.93 49.29Z" fill="#053579" fill-opacity="1.000000" fill-rule="nonzero"/>
	<path id="Vector" d="M154.41 67.83L145.04 67.83L145.04 98.35L147.6 98.35C148.99 97.73 150.29 97.1 151.59 96.42L154.41 67.83Z" fill="#072244" fill-opacity="1.000000" fill-rule="nonzero"/>
	<path id="Vector" d="M168.31 80.22L165.84 105.09L182.66 105.09L183.33 98.41L178.98 98.41L168.31 80.22Z" fill="#053579" fill-opacity="1.000000" fill-rule="nonzero"/>
	<path id="Vector" d="M195.12 56.34L195.12 56.52L195.12 56.56L198.57 56.56C202.02 56.56 204.62 57.55 205.97 59.53C206.77 53.01 208.66 47.23 211.39 42.78C208.48 41.83 204.98 41.34 200.9 41.34L190.05 41.34C190.1 41.39 190.14 41.43 190.19 41.48C193.42 45.2 195.12 50.05 195.12 56.34Z" fill="#053579" fill-opacity="1.000000" fill-rule="nonzero"/>
	<path id="Vector" d="M223.81 63.03C224.3 57.96 223.54 53.87 221.57 50.5C218.03 53.02 215.83 59.26 215.83 66.35L215.83 66.53C215.83 70.48 216.55 74.16 217.76 77.12C221.08 73.62 223.23 69 223.81 63.21L223.81 63.03Z" fill="#053579" fill-opacity="1.000000" fill-rule="nonzero"/>
	<path id="Vector" d="M205.52 68.23C203.9 70.57 200.99 71.96 197.09 71.96L189.42 71.96C187.72 73.71 185.75 75.1 183.46 76.18L189.29 85.79L191.98 85.79L202.29 105.09L221.61 105.09L217.17 97.05C210.45 92.21 205.83 81.25 205.52 68.23Z" fill="#053579" fill-opacity="1.000000" fill-rule="nonzero"/>
	<path id="Vector" d="M179.47 57.69L179.47 57.51C179.47 52.52 176.29 49.96 171.27 49.87L169.74 65.23L171.04 65.23C176.33 65.27 179.47 62.35 179.47 57.69Z" fill="#053579" fill-opacity="1.000000" fill-rule="nonzero"/>
	<path id="Vector" d="M171.27 49.87C176.24 49.96 179.47 52.52 179.47 57.51L179.47 57.69C179.47 62.31 176.33 65.23 171.09 65.23L169.79 65.23L168.31 80.22L178.98 98.36L183.33 98.36L184.58 85.75L189.33 85.75L183.51 76.14C185.75 75.06 187.77 73.67 189.47 71.92L185.97 71.92L187.5 56.52L195.12 56.52L195.12 56.48L195.12 56.3C195.12 50.01 193.41 45.21 190.14 41.43C190.1 41.39 190.05 41.34 190.01 41.3L172.16 41.3L171.27 49.87Z" fill="#072244" fill-opacity="1.000000" fill-rule="nonzero"/>
	<path id="Vector" d="M206.91 64.19L206.91 64.37C206.77 65.85 206.28 67.11 205.56 68.23C205.88 81.25 210.45 92.21 217.27 97.01L209.42 82.87C212.65 81.48 215.52 79.59 217.8 77.12C216.55 74.16 215.87 70.43 215.87 66.53L215.87 66.35C215.87 59.3 218.07 53.01 221.61 50.5C221.12 49.69 220.58 48.93 219.95 48.16C217.89 45.78 215.07 43.94 211.39 42.78C208.7 47.26 206.77 53.06 205.97 59.52C206.73 60.73 207.09 62.3 206.91 64.19Z" fill="#072244" fill-opacity="1.000000" fill-rule="nonzero"/>
	<path id="Vector" d="M244.84 66.53C244.84 77.89 241.56 87.94 236.36 93.91C239.41 101.5 244.84 106.35 251.83 106.35C263.98 106.35 274.51 91.49 276.31 73.22L276.31 73.04C278.1 54.72 270.57 40.08 258.42 40.08C252.32 40.08 246.63 43.81 242.24 49.87C243.85 54.72 244.75 60.33 244.75 66.35L244.75 66.53L244.84 66.53ZM245.15 73.22L245.15 73.04C246.05 63.83 250.8 56.02 256.81 56.02C262.81 56.02 266.09 63.92 265.14 73.22L265.14 73.4C264.25 82.6 259.5 90.41 253.53 90.41C247.53 90.41 244.21 82.42 245.15 73.22Z" fill="#053579" fill-opacity="1.000000" fill-rule="nonzero"/>
	<path id="Vector" d="M233.99 73.4C233.22 81.16 234.17 88.3 236.41 93.91C241.61 87.94 244.88 77.93 244.88 66.53L244.88 66.35C244.88 60.33 243.98 54.72 242.37 49.87C238.02 55.85 234.93 64.1 234.03 73.22L233.99 73.4Z" fill="#072244" fill-opacity="1.000000" fill-rule="nonzero"/>
	<path id="Vector" d="M113.03 184.91L123.97 184.91L129.04 174.59L127.29 155.73L113.03 184.91Z" fill="#053579" fill-opacity="1.000000" fill-rule="nonzero"/>
	<path id="Vector" d="M148.85 121.16L144.19 121.16L137.82 134.27L139.08 148.14L148.85 121.16Z" fill="#053579" fill-opacity="1.000000" fill-rule="nonzero"/>
	<path id="Vector" d="M154.5 154.88L154.54 133.69L141.1 170.59L141.14 184.91L150.78 184.91L170.06 145.54L170.06 123.09L154.5 154.88Z" fill="#053579" fill-opacity="1.000000" fill-rule="nonzero"/>
	<path id="Vector" d="M154.55 121.16L148.85 121.16L139.08 148.14L137.82 134.27L127.29 155.73L129.04 174.59L141.1 149.94L141.1 170.59L154.55 133.69L154.55 121.16Z" fill="#072244" fill-opacity="1.000000" fill-rule="nonzero"/>
	<path id="Vector" d="M171 121.16L170.06 123.09L170.06 145.54L181.94 121.16L171 121.16Z" fill="#072244" fill-opacity="1.000000" fill-rule="nonzero"/>
	<path id="Vector" d="M112.94 151.6L115.94 121.21L100.16 121.21L100.16 149.85C100.16 170.32 89.76 179.44 73.76 179.44C68.06 179.44 63.09 178.27 59.1 175.85C63.18 182.85 70.84 186.17 81.15 186.17C90.21 186.17 97.83 183.66 103.35 178.27L103.3 178.27L112.94 151.6Z" fill="#053579" fill-opacity="1.000000" fill-rule="nonzero"/>
	<path id="Vector" d="M73.44 163.45C72.91 161.57 72.77 159.28 73.04 156.59L76.54 121.16L63.54 121.16L63.54 149.89C63.49 158.87 67.44 163.27 73.44 163.45Z" fill="#053579" fill-opacity="1.000000" fill-rule="nonzero"/>
	<path id="Vector" d="M112.45 156.5L112.94 151.56L103.26 178.18L103.3 178.18C108.28 173.38 111.46 166.24 112.45 156.5Z" fill="#053579" fill-opacity="1.000000" fill-rule="nonzero"/>
	<path id="Vector" d="M100.12 149.8L100.12 121.16L98.95 121.16L95.41 157.03C94.51 165.97 89.72 170.14 82.86 170.14C78.1 170.14 74.7 167.94 73.44 163.45C67.39 163.27 63.49 158.87 63.49 149.89L63.49 121.16L59.55 121.16L56.05 156.94C55.29 164.89 56.36 171.13 59.1 175.75C63.09 178.18 68.06 179.35 73.76 179.35C89.72 179.39 100.12 170.28 100.12 149.8Z" fill="#072244" fill-opacity="1.000000" fill-rule="nonzero"/>
	<path id="Vector" d="M221.48 136.74C217.62 132.43 210.81 130.05 202.16 130.05L192.88 130.05L192.88 162.56L202.16 162.56C205.7 162.56 208.93 162.15 211.75 161.43L214.17 136.74L221.48 136.74Z" fill="#053579" fill-opacity="1.000000" fill-rule="nonzero"/>
	<path id="Vector" d="M233.13 121.48C242.95 127.09 248.29 135.71 248.29 145.99L248.29 146.17C248.29 149.27 247.79 152.23 246.81 155.01C246.27 157.48 245.15 159.64 243.54 161.48C236.5 171.62 221.93 178.22 201.44 178.22L185.52 178.22L184.85 184.91L218.65 184.91C250.44 184.91 270.39 171.27 272.18 152.85L272.18 152.67C273.93 135.84 259.72 123.45 233.13 121.48Z" fill="#053579" fill-opacity="1.000000" fill-rule="nonzero"/>
	<path id="Vector" d="M243.58 161.48C239.19 166.51 231.16 169.25 220.99 169.25L210.99 169.25L211.75 161.44C208.93 162.2 205.7 162.56 202.16 162.56L192.88 162.56L192.88 130.05L202.16 130.05C210.81 130.05 217.62 132.43 221.48 136.75L224.17 136.75C238.96 136.75 248.16 142.76 247.12 152.95L247.12 153.13C247.08 153.76 246.94 154.39 246.81 155.02C247.75 152.23 248.29 149.27 248.29 146.17L248.29 145.99C248.29 135.71 242.95 127.09 233.14 121.48C230.67 121.3 228.11 121.21 225.47 121.21L191.17 121.21L185.57 178.23L201.49 178.23C221.97 178.23 236.54 171.62 243.58 161.48Z" fill="#072244" fill-opacity="1.000000" fill-rule="nonzero"/>
	<path id="Vector" d="M98.95 225.18C98.95 224.87 98.95 224.6 99 224.28L101.28 201.12L93.8 201.12L93.8 217.6C93.8 221.28 95.68 223.79 98.95 225.18Z" fill="#053579" fill-opacity="1.000000" fill-rule="nonzero"/>
	<path id="Vector" d="M148.58 201.07L137.78 201.07L137.78 217.46C137.78 230.84 125.31 236.81 106.08 236.81C93.26 236.81 83.62 234.12 78.64 228.41C80.08 238.69 91.91 243.5 110.29 243.5C131.01 243.5 145 237.53 146.29 224.15L148.58 201.07Z" fill="#053579" fill-opacity="1.000000" fill-rule="nonzero"/>
	<path id="Vector" d="M106.08 236.85C125.31 236.85 137.78 230.88 137.78 217.5L137.78 201.12L128.18 201.12L125.9 224.55C125.31 230.39 119.76 233.13 111.55 233.13C103.89 233.13 98.95 230.57 98.95 225.18C95.73 223.79 93.8 221.28 93.8 217.55L93.8 201.07L80.89 201.07L78.6 224.46C78.47 225.85 78.51 227.16 78.65 228.41C83.62 234.12 93.26 236.85 106.08 236.85Z" fill="#072244" fill-opacity="1.000000" fill-rule="nonzero"/>
	<path id="Vector" d="M221.35 201.75C222.82 203.77 223.09 206.19 222.11 208.97L222.06 209.11C218.48 218.98 202.11 224.15 182.34 224.15L171.27 224.15L166.92 236.05L155.31 236.05L152.08 242.78L175.88 242.78L181.71 230.88L193.64 230.88C214.89 230.88 233 225.72 237.84 215.84L237.89 215.71C241.43 208.39 234.97 203.45 221.35 201.75Z" fill="#053579" fill-opacity="1.000000" fill-rule="nonzero"/>
	<path id="Vector" d="M189.52 214.86L191.49 210.82L199.15 210.82C199.42 210.46 199.65 210.06 199.78 209.65L199.83 209.52C201.13 205.93 196.87 204.09 189.02 204.09L178.53 204.09L174.54 215.09L185.17 215.09C186.73 215.13 188.17 215.04 189.52 214.86Z" fill="#053579" fill-opacity="1.000000" fill-rule="nonzero"/>
	<path id="Vector" d="M171.27 224.15L182.34 224.15C202.07 224.15 218.43 218.99 222.06 209.11L222.1 208.98C223.09 206.24 222.78 203.81 221.34 201.75C217.85 201.3 213.86 201.07 209.42 201.07L172.48 201.07L155.35 236.05L166.96 236.05L171.27 224.15ZM178.57 204.08L189.06 204.08C196.95 204.08 201.17 205.92 199.87 209.52L199.82 209.65C199.69 210.05 199.47 210.46 199.2 210.82L202.83 210.82C211.3 210.82 215.65 212.66 213.95 216.25L213.9 216.38C212.29 219.66 205.92 221.86 197.58 221.86L186.15 221.86L189.56 214.9C188.21 215.08 186.73 215.17 185.21 215.17L174.58 215.17L178.57 204.08Z" fill="#072244" fill-opacity="1.000000" fill-rule="nonzero"/>
</svg>
