<svg width="266.000000" height="262.000000" viewBox="0 0 266 262" fill="none" xmlns="http://www.w3.org/2000/svg" xmlns:xlink="http://www.w3.org/1999/xlink">
	<desc>
			Created with Pixso.
	</desc>
	<defs/>
	<path id="Vector" d="M132.24 261.17C129.86 261.04 74.57 258.38 32.59 200.35C-9.13 142.57 -0.2 8.35 0.17 2.76L0.42 -0.29L264.31 -0.29L264.57 2.76C264.94 8.47 273.86 142.69 232.14 200.35C189.92 258.38 134.76 261.04 132.24 261.17ZM6.46 6.19C5.33 26.89 0.93 145.23 37.87 196.41C76.95 250.38 129.35 254.31 132.24 254.57C135.13 254.44 187.53 250.5 226.61 196.41C263.56 145.36 259.16 26.76 258.03 6.19L6.46 6.19Z" fill="#FFFFFF" fill-opacity="1.000000" fill-rule="nonzero"/>
	<path id="Vector" d="M184.9 59.39L185.02 59.26C191.05 42.63 203.49 29.17 213.67 29.17C223.85 29.17 226.61 42.5 220.58 59.14L220.46 59.26C214.43 75.9 201.99 89.36 191.81 89.36C181.63 89.36 178.86 76.03 184.9 59.39ZM211.03 59.39L211.16 59.26C214.18 50.89 213.42 43.65 208.39 43.65C203.37 43.65 197.46 50.76 194.45 59.14L194.32 59.26C191.3 67.65 192.18 74.89 197.21 74.89C202.11 74.89 208.02 67.77 211.03 59.39Z" fill="#FFFFFF" fill-opacity="1.000000" fill-rule="nonzero"/>
	<path id="Vector" d="M113.02 103.71L121.69 103.71L124.45 134.31L135.51 103.71L144.68 103.71L123.82 161.62L115.66 161.62L112.77 129.87L101.33 161.62L92.16 161.62L113.02 103.71Z" fill="#FFFFFF" fill-opacity="1.000000" fill-rule="nonzero"/>
	<path id="Vector" d="M42.15 136.35L42.15 103.71L56.34 103.71L56.34 135.96C56.34 144.35 60.11 148.28 65.64 148.28C71.3 148.28 75.07 144.47 75.07 136.35L75.07 103.71L89.27 103.71L89.27 135.84C89.27 154.5 79.97 162.76 65.52 162.76C51.19 162.76 42.15 154.38 42.15 136.35Z" fill="#FFFFFF" fill-opacity="1.000000" fill-rule="nonzero"/>
	<path id="Vector" d="M152.22 103.71L181 103.71C207.39 103.71 222.85 115.65 222.85 132.28L222.85 132.41C222.85 149.17 207.26 161.49 180.62 161.49L152.35 161.49L152.35 103.71L152.22 103.71ZM172.83 117.93L172.83 147.52L181.25 147.52C193.69 147.52 201.86 142.19 201.86 132.92L201.86 132.79C201.86 123.52 193.69 118.06 181.25 118.06L172.83 117.93Z" fill="#FFFFFF" fill-opacity="1.000000" fill-rule="nonzero"/>
	<path id="Vector" d="M71.67 199.84L71.67 177.36L90.77 177.36L90.77 199.71C90.77 205.42 95.68 208.21 103.34 208.21C111.01 208.21 116.03 205.55 116.03 199.96L116.03 177.36L135.13 177.36L135.13 199.58C135.13 212.53 122.57 218.25 103.22 218.25C83.86 218.12 71.67 212.28 71.67 199.84Z" fill="#FFFFFF" fill-opacity="1.000000" fill-rule="nonzero"/>
	<path id="Vector" d="M173.34 51.65C173.34 45.3 170.57 39.58 166.17 35.26C162.78 32.09 157.63 30.19 150.72 30.19L126.71 30.19L126.71 88.09L140.79 88.09L140.79 77.68C140.79 77.68 146.32 76.53 149.96 75.52L157.38 88.09L173.59 88.09L163.16 70.57C169.31 66.25 173.34 59.39 173.34 51.65ZM150.84 62.44C146.44 64.6 140.66 65.49 140.66 65.49L140.66 58L140.66 55.08L140.66 44.03L149.96 44.03C154.61 44.03 157.63 46.32 157.63 51.01L157.63 51.14C157.63 51.39 157.63 51.65 157.63 51.9C157.25 57.62 155.36 60.28 150.84 62.44Z" fill="#FFFFFF" fill-opacity="1.000000" fill-rule="nonzero"/>
	<path id="Vector" d="M194.32 191.58C194.32 182.57 185.4 177.23 171.58 177.23L147.95 177.23L147.95 218.12L163.16 218.12L163.16 212.16C163.16 212.16 171.2 210.5 177.99 207.96C184.77 205.43 185.9 204.28 187.91 203.14C189.8 201.87 191.81 199.46 192.81 197.55C193.82 195.77 194.45 193.87 194.32 191.58ZM163.28 202.12L163.28 201.23L163.28 197.55L163.28 196.79L163.28 186.76L170.45 186.76C174.59 186.76 177.61 187.9 178.74 189.93C178.86 190.19 179.49 191.58 179.37 193.23C179.37 193.36 179.37 193.49 179.24 193.62C179.24 193.74 179.24 193.74 179.12 193.87C178.99 194.25 178.86 194.76 178.49 195.14C176.85 197.55 173.96 199.46 169.94 200.85C165.92 202.25 163.28 202.12 163.28 202.12Z" fill="#FFFFFF" fill-opacity="1.000000" fill-rule="nonzero"/>
	<path id="Vector" d="M113.65 61.17L113.65 58.12L113.65 57.87L103.09 57.87L83.99 57.87L83.99 58.12L83.99 59.39L83.99 64.35L83.99 66.63L95.68 66.63L96.56 66.63C95.55 68.41 94.29 69.81 92.91 71.08C91.28 72.6 89.39 73.62 87.63 74.38C86.38 74.89 85.25 75.39 84.37 75.65C84.24 75.77 83.99 75.77 83.74 75.77C83.49 75.9 83.11 75.9 82.98 76.03C82.86 76.03 82.86 76.03 82.73 76.16C82.23 76.28 81.98 76.28 81.98 76.28C80.47 76.53 78.96 76.66 77.45 76.66C75.7 76.66 74.06 76.53 72.55 76.16C68.66 75.65 65.39 74.12 62.75 71.71C59.61 68.92 57.98 65.36 57.6 60.92C57.85 52.66 66.77 46.06 77.83 46.06C83.24 46.06 88.01 47.58 91.66 50.12L106.11 39.33C106.11 39.33 103.59 36.66 96.81 33.87C96.68 33.87 96.68 33.87 96.68 33.74C96.56 33.74 96.43 33.62 96.3 33.62C95.8 33.49 95.3 33.23 94.8 32.98C94.04 32.73 93.41 32.47 92.66 32.22C92.16 32.09 91.66 31.84 91.03 31.71C90.9 31.71 90.9 31.71 90.9 31.71C86.13 30.44 80.72 29.68 74.94 29.68C62.75 29.68 52.83 32.6 45.41 38.32C38 44.03 34.23 51.26 34.23 59.9C34.23 68.41 38 75.52 45.66 81.36C52.2 86.32 60.11 89.11 69.41 89.87C71.67 90 87.89 90.5 96.68 80.73L96.68 88.98L98.82 88.98L103.09 88.98L113.65 88.98L113.65 69.93L113.65 67.9L113.65 65.36L113.65 64.85L113.65 64.73L113.65 61.17Z" fill="#FFFFFF" fill-opacity="1.000000" fill-rule="nonzero"/>
</svg>
