<svg width="458.000000" height="169.000000" viewBox="0 0 458 169" fill="none" xmlns="http://www.w3.org/2000/svg" xmlns:xlink="http://www.w3.org/1999/xlink">
	<desc>
			Created with Pixso.
	</desc>
	<defs/>
	<path id="Vector" d="M0 0.92L33.78 0.92L33.78 11.6L12.29 11.6L12.29 45.38L0 45.38L0 0.92Z" fill="#FFFFFF" fill-opacity="0.100000" fill-rule="nonzero"/>
	<path id="Vector" d="M36.93 23.23L36.93 23.11C36.93 10.33 47.21 0 60.89 0C74.57 0 84.73 10.21 84.73 22.98L84.73 23.11C84.73 35.89 74.45 46.22 60.76 46.22C47.08 46.22 36.93 36.01 36.93 23.23ZM72.09 23.23L72.09 23.11C72.09 16.64 67.52 11.09 60.76 11.09C54.01 11.09 49.48 16.55 49.48 22.94L49.48 23.07C49.48 29.5 54.09 35.08 60.89 35.08C67.6 35.13 72.09 29.66 72.09 23.23Z" fill="#FFFFFF" fill-opacity="0.100000" fill-rule="nonzero"/>
	<path id="Vector" d="M93.58 34.42L108.1 0.58L121.62 0.58L136.05 34.42L141.55 34.42L141.55 54.92L130.14 54.92L130.14 45.34L99.46 45.34L99.46 54.92L88.13 54.92L88.13 34.42L93.58 34.42ZM106.17 34.88L123.29 34.88L114.69 13.15L106.17 34.88Z" fill="#FFFFFF" fill-opacity="0.100000" fill-rule="nonzero"/>
	<path id="Vector" d="M145.92 23.23L145.92 23.11C145.92 10.33 161.36 0 181.97 0C202.57 0 217.85 10.21 217.85 22.98L217.85 23.11C217.85 35.89 202.4 46.22 181.8 46.22C161.15 46.22 145.92 36.01 145.92 23.23ZM198.84 23.23L198.84 23.11C198.84 16.64 191.95 11.09 181.76 11.09C171.56 11.09 164.76 16.55 164.76 22.94L164.76 23.07C164.76 29.5 171.73 35.08 181.92 35.08C192.08 35.13 198.84 29.66 198.84 23.23Z" fill="#FFFFFF" fill-opacity="0.100000" fill-rule="nonzero"/>
	<path id="Vector" d="M225.82 0.92L248.57 0.92C254.15 0.92 258.1 2.31 260.7 4.87C262.46 6.72 263.55 9.07 263.55 12.1L263.55 12.23C263.55 17.35 260.65 20.42 256.71 22.14C262.08 23.91 265.52 26.98 265.52 32.99L265.52 33.11C265.52 40.72 259.31 45.38 248.74 45.38L225.86 45.38L225.86 0.92L225.82 0.92ZM251.42 14.62C251.42 12.14 249.45 10.8 245.84 10.8L237.78 10.8L237.78 18.61L245.51 18.61C249.24 18.61 251.38 17.35 251.38 14.75L251.38 14.62L251.42 14.62ZM247.18 27.23L237.78 27.23L237.78 35.42L247.31 35.42C251.13 35.42 253.18 33.95 253.18 31.35L253.18 31.22C253.18 28.83 251.3 27.23 247.18 27.23Z" fill="#FFFFFF" fill-opacity="0.100000" fill-rule="nonzero"/>
	<path id="Vector" d="M286.76 0.58L298.59 0.58L317.48 45.34L304.3 45.34L301.11 37.36L283.95 37.36L280.76 45.34L267.87 45.34L286.76 0.58ZM297.5 27.78L292.55 15.21L287.56 27.78L297.5 27.78Z" fill="#FFFFFF" fill-opacity="0.100000" fill-rule="nonzero"/>
	<path id="Vector" d="M361.71 45.34L349.41 45.34L349.41 31.89L344.09 31.89L335.1 45.34L320.84 45.34L331.54 29.83C325.53 27.44 322.35 22.48 322.35 16.51L322.35 16.43C322.35 6.13 330.07 0.88 341.69 0.88L361.71 0.88L361.71 45.34ZM341.36 11.51C337.25 11.51 334.68 13.36 334.68 16.89L334.68 16.97C334.68 20.33 337.16 22.23 341.27 22.23L349.37 22.23L349.37 11.51L341.36 11.51Z" fill="#FFFFFF" fill-opacity="0.100000" fill-rule="nonzero"/>
	<path id="Vector" d="M0 62.11L40.12 62.11L40.12 106.53L27.82 106.53L27.82 72.99L12.29 72.99L12.29 106.53L0 106.53L0 62.11Z" fill="#FFFFFF" fill-opacity="0.100000" fill-rule="nonzero"/>
	<path id="Vector" d="M62.53 62.11L76.46 62.11C84.6 62.11 87.79 67.87 84.22 77.66L84.18 77.78C80.36 88.33 72.47 93.84 64.46 93.84L59.97 93.84L55.35 106.53L46.37 106.53L62.53 62.11ZM67.77 84.21C70.92 84.21 73.77 81.86 75.03 78.37L75.07 78.25C76.46 74.42 75.2 72.49 71.97 72.49L67.69 72.49L63.41 84.21L67.77 84.21Z" fill="#FFFFFF" fill-opacity="0.100000" fill-rule="nonzero"/>
	<path id="Vector" d="M90.56 84.46L90.56 84.34C90.56 71.57 100.84 61.23 114.52 61.23C128.2 61.23 138.36 71.44 138.36 84.21L138.36 84.34C138.36 97.12 128.08 107.45 114.4 107.45C100.72 107.45 90.56 97.24 90.56 84.46ZM125.73 84.46L125.73 84.34C125.73 77.87 121.15 72.32 114.4 72.32C107.64 72.32 103.11 77.78 103.11 84.17L103.11 84.3C103.11 90.73 107.72 96.32 114.52 96.32C121.24 96.32 125.73 90.85 125.73 84.46Z" fill="#FFFFFF" fill-opacity="0.100000" fill-rule="nonzero"/>
	<path id="Vector" d="M146.59 62.11L167.7 62.11L167.7 72.78L154.27 72.78L154.27 106.57L146.59 106.57L146.59 62.11Z" fill="#FFFFFF" fill-opacity="0.100000" fill-rule="nonzero"/>
	<path id="Vector" d="M175.88 62.11L194.98 62.11C206.14 62.11 213.36 67.87 213.36 77.66L213.36 77.78C213.36 88.33 205.3 93.84 194.35 93.84L188.18 93.84L188.18 106.53L175.88 106.53L175.88 62.11ZM194.09 84.21C198.42 84.21 201.14 81.86 201.14 78.37L201.14 78.25C201.14 74.42 198.42 72.49 194.05 72.49L188.22 72.49L188.22 84.21L194.09 84.21Z" fill="#FFFFFF" fill-opacity="0.100000" fill-rule="nonzero"/>
	<path id="Vector" d="M230.31 61.82L242.15 61.82L261.03 106.57L247.85 106.57L244.67 98.59L227.5 98.59L224.31 106.57L211.43 106.57L230.31 61.82ZM241.1 88.96L236.15 76.4L231.15 88.96L241.1 88.96Z" fill="#FFFFFF" fill-opacity="0.100000" fill-rule="nonzero"/>
	<path id="Vector" d="M266.57 62.11L288.31 62.11L306.02 79.3L323.73 62.11L345.47 62.11L345.47 106.53L325.03 106.53L325.03 81.02L306.06 98.42L305.64 98.42L286.76 81.1L286.76 106.57L266.61 106.57L266.61 62.11L266.57 62.11Z" fill="#FFFFFF" fill-opacity="0.100000" fill-rule="nonzero"/>
	<path id="Vector" d="M354.87 62.11L367.88 62.11L378.46 79.3L389.03 62.11L402.04 62.11L402.04 106.53L389.79 106.53L389.79 81.02L378.46 98.42L378.2 98.42L366.91 81.1L366.91 106.57L354.87 106.57L354.87 62.11Z" fill="#FFFFFF" fill-opacity="0.100000" fill-rule="nonzero"/>
	<path id="Vector" d="M0 123.34L19.09 123.34C30.25 123.34 37.47 129.1 37.47 138.89L37.47 139.02C37.47 149.56 29.41 155.07 18.46 155.07L12.29 155.07L12.29 167.76L0 167.76L0 123.34ZM18.17 145.44C22.49 145.44 25.22 143.09 25.22 139.6L25.22 139.48C25.22 135.65 22.49 133.72 18.12 133.72L12.29 133.72L12.29 145.44L18.17 145.44Z" fill="#FFFFFF" fill-opacity="0.100000" fill-rule="nonzero"/>
	<path id="Vector" d="M54.39 123L66.22 123L85.1 167.76L71.97 167.76L68.78 159.78L51.62 159.78L48.43 167.76L35.54 167.76L54.39 123ZM65.17 150.19L60.22 137.63L55.23 150.19L65.17 150.19Z" fill="#FFFFFF" fill-opacity="0.100000" fill-rule="nonzero"/>
	<path id="Vector" d="M426.89 62.11L438.72 62.11L457.6 106.87L444.43 106.87L441.24 98.88L424.07 98.88L420.88 106.87L408 106.87L426.89 62.11ZM437.67 89.3L432.72 76.73L427.72 89.3L437.67 89.3Z" fill="#FFFFFF" fill-opacity="0.100000" fill-rule="nonzero"/>
	<path id="Vector" d="M88.42 128.93C93.54 125.19 99.46 122.46 108.14 122.46C119.81 122.46 126.15 127.41 126.15 134.73L126.15 134.81C126.15 140.15 123.63 142.92 118.6 145.02C123.8 146.54 127.28 149.23 127.28 155.24L127.28 155.32C127.28 162.76 120.44 168.73 107.43 168.73C98.87 168.73 92.66 166.12 87.79 162.51L93.66 153.55C97.9 156.46 102.48 158.26 107.35 158.26C111.96 158.26 114.77 156.75 114.77 154.06L114.77 153.93C114.77 151.41 112.51 149.94 107.72 149.94L98.58 149.94L98.58 140.86L107.77 140.86C111.75 140.86 113.81 139.23 113.81 136.79L113.81 136.7C113.81 134.31 111.59 132.84 107.52 132.84C102.77 132.84 97.95 134.81 94.21 137.46L88.42 128.93Z" fill="#FFFFFF" fill-opacity="0.100000" fill-rule="nonzero"/>
	<path id="Vector" d="M135.67 123.34L171.27 123.34C179.99 123.34 186.12 124.73 190.19 127.29C192.96 129.14 194.64 131.49 194.64 134.52L194.64 134.64C194.64 139.77 190.07 142.84 183.94 144.56C192.37 146.33 197.7 149.39 197.7 155.41L197.7 155.53C197.7 163.14 187.97 167.8 171.43 167.8L135.63 167.8L135.63 123.34L135.67 123.34ZM175.76 137.04C175.76 134.56 172.69 133.21 167.02 133.21L154.43 133.21L154.43 141.03L166.52 141.03C172.35 141.03 175.76 139.77 175.76 137.17L175.76 137.04ZM169.12 149.69L154.43 149.69L154.43 157.88L169.33 157.88C175.29 157.88 178.57 156.41 178.57 153.81L178.57 153.68C178.52 151.25 175.54 149.69 169.12 149.69Z" fill="#FFFFFF" fill-opacity="0.100000" fill-rule="nonzero"/>
	<path id="Vector" d="M233.75 167.76L233.75 142.42L214.87 167.76L204.17 167.76L204.17 123.34L216.46 123.34L216.46 147.71L234.72 123.34L246.05 123.34L246.05 167.76L233.75 167.76Z" fill="#FFFFFF" fill-opacity="0.100000" fill-rule="nonzero"/>
	<path id="Vector" d="M267.45 134.14L258.89 134.14L262.79 123.34L287.89 123.34L283.99 134.14L275.38 134.14L263.17 167.8L255.24 167.8L267.45 134.14Z" fill="#FFFFFF" fill-opacity="0.100000" fill-rule="nonzero"/>
	<path id="Vector" d="M322.76 167.76L322.76 142.42L303.88 167.76L293.18 167.76L293.18 123.34L305.48 123.34L305.48 147.71L323.73 123.34L335.06 123.34L335.06 167.76L322.76 167.76Z" fill="#FFFFFF" fill-opacity="0.100000" fill-rule="nonzero"/>
	<path id="Vector" d="M382.65 167.76L370.35 167.76L370.35 154.31L365.03 154.31L356 167.76L341.73 167.76L352.44 152.25C346.39 149.85 343.25 144.9 343.25 138.93L343.25 138.85C343.25 128.55 350.97 123.3 362.59 123.3L382.61 123.3L382.61 167.76L382.65 167.76ZM362.3 133.93C358.18 133.93 355.62 135.78 355.62 139.31L355.62 139.39C355.62 142.75 358.1 144.64 362.21 144.64L370.35 144.64L370.35 133.93L362.3 133.93Z" fill="#FFFFFF" fill-opacity="0.100000" fill-rule="nonzero"/>
</svg>
