<svg width="288.000000" height="284.000000" viewBox="0 0 288 284" fill="none" xmlns="http://www.w3.org/2000/svg" xmlns:xlink="http://www.w3.org/1999/xlink">
	<desc>
			Created with Pixso.
	</desc>
	<defs/>
	<path id="Vector" d="M143.72 283.1C141.14 282.96 81.39 280.07 36.03 217.21C-9.05 154.61 0.59 9.21 1 3.15L1.27 -0.15L286.45 -0.15L286.72 3.15C287.13 9.34 296.77 154.75 251.69 217.21C206.06 280.07 146.44 282.96 143.72 283.1ZM7.79 6.87C6.56 29.29 1.81 157.5 41.74 212.94C83.97 271.41 140.6 275.67 143.72 275.94C146.85 275.81 203.48 271.54 245.71 212.94C285.64 157.64 280.89 29.15 279.66 6.87L7.79 6.87Z" fill="#EAEFF7" fill-opacity="1.000000" fill-rule="nonzero"/>
	<path id="Vector" d="M200.63 64.51L200.76 64.37C207.28 46.35 220.72 31.77 231.72 31.77C242.72 31.77 245.71 46.21 239.19 64.23L239.06 64.37C232.54 82.39 219.1 96.98 208.1 96.98C197.1 96.98 194.11 82.53 200.63 64.51ZM228.87 64.51L229.01 64.37C232.27 55.29 231.45 47.45 226.02 47.45C220.59 47.45 214.21 55.16 210.95 64.23L210.81 64.37C207.55 73.45 208.5 81.29 213.93 81.29C219.23 81.29 225.61 73.59 228.87 64.51Z" fill="#EAEFF7" fill-opacity="1.000000" fill-rule="nonzero"/>
	<path id="Vector" d="M122.95 112.52L132.32 112.52L135.3 145.67L147.25 112.52L157.17 112.52L134.63 175.25L125.8 175.25L122.68 140.86L110.32 175.25L100.4 175.25L122.95 112.52Z" fill="#EAEFF7" fill-opacity="1.000000" fill-rule="nonzero"/>
	<path id="Vector" d="M46.35 147.87L46.35 112.52L61.7 112.52L61.7 147.46C61.7 156.54 65.77 160.8 71.75 160.8C77.86 160.8 81.93 156.68 81.93 147.87L81.93 112.52L97.28 112.52L97.28 147.32C97.28 167.55 87.23 176.49 71.61 176.49C56.13 176.49 46.35 167.41 46.35 147.87Z" fill="#EAEFF7" fill-opacity="1.000000" fill-rule="nonzero"/>
	<path id="Vector" d="M165.32 112.52L196.42 112.52C224.93 112.52 241.64 125.45 241.64 143.47L241.64 143.61C241.64 161.77 224.8 175.11 196.01 175.11L165.45 175.11L165.45 112.52L165.32 112.52ZM187.59 127.93L187.59 159.98L196.69 159.98C210.13 159.98 218.96 154.2 218.96 144.16L218.96 144.02C218.96 133.98 210.13 128.07 196.69 128.07L187.59 127.93Z" fill="#EAEFF7" fill-opacity="1.000000" fill-rule="nonzero"/>
	<path id="Vector" d="M78.27 216.66L78.27 192.31L98.91 192.31L98.91 216.52C98.91 222.71 104.2 225.74 112.49 225.74C120.77 225.74 126.2 222.85 126.2 216.8L126.2 192.31L146.85 192.31L146.85 216.38C146.85 230.41 133.27 236.6 112.35 236.6C91.44 236.47 78.27 230.14 78.27 216.66Z" fill="#EAEFF7" fill-opacity="1.000000" fill-rule="nonzero"/>
	<path id="Vector" d="M188.13 56.12C188.13 49.24 185.14 43.05 180.39 38.37C176.72 34.93 171.16 32.87 163.69 32.87L137.75 32.87L137.75 95.6L152.96 95.6L152.96 84.32C152.96 84.32 158.93 83.08 162.87 81.98L170.89 95.6L188.4 95.6L177.13 76.61C183.79 71.94 188.13 64.51 188.13 56.12ZM163.82 67.81C159.07 70.15 152.82 71.11 152.82 71.11L152.82 63L152.82 59.83L152.82 47.86L162.87 47.86C167.9 47.86 171.16 50.34 171.16 55.43L171.16 55.57C171.16 55.84 171.16 56.12 171.16 56.39C170.75 62.58 168.71 65.47 163.82 67.81Z" fill="#EAEFF7" fill-opacity="1.000000" fill-rule="nonzero"/>
	<path id="Vector" d="M210.81 207.72C210.81 197.95 201.17 192.17 186.23 192.17L160.7 192.17L160.7 236.47L177.13 236.47L177.13 230C177.13 230 185.82 228.21 193.16 225.46C200.49 222.71 201.71 221.47 203.88 220.23C205.92 218.86 208.09 216.25 209.18 214.18C210.27 212.26 210.94 210.19 210.81 207.72ZM177.27 219.14L177.27 218.17L177.27 214.18L177.27 213.35L177.27 202.49L185.01 202.49C189.49 202.49 192.75 203.73 193.97 205.93C194.11 206.2 194.78 207.72 194.65 209.5C194.65 209.64 194.65 209.78 194.51 209.92C194.51 210.05 194.51 210.05 194.38 210.19C194.24 210.6 194.11 211.16 193.7 211.57C191.93 214.18 188.81 216.25 184.46 217.76C180.12 219.27 177.27 219.14 177.27 219.14Z" fill="#EAEFF7" fill-opacity="1.000000" fill-rule="nonzero"/>
	<path id="Vector" d="M123.63 66.44L123.63 63.14L123.63 62.86L112.22 62.86L91.58 62.86L91.58 63.14L91.58 64.51L91.58 69.87L91.58 72.35L104.21 72.35L105.16 72.35C104.07 74.28 102.71 75.79 101.22 77.17C99.45 78.82 97.41 79.92 95.51 80.74C94.16 81.29 92.93 81.84 91.98 82.12C91.85 82.26 91.58 82.26 91.3 82.26C91.03 82.39 90.63 82.39 90.49 82.53C90.35 82.53 90.35 82.53 90.22 82.67C89.67 82.81 89.4 82.81 89.4 82.81C87.77 83.08 86.14 83.22 84.51 83.22C82.61 83.22 80.85 83.08 79.22 82.67C75.01 82.12 71.48 80.47 68.63 77.85C65.23 74.83 63.46 70.98 63.06 66.16C63.33 57.22 72.97 50.07 84.92 50.07C90.76 50.07 95.92 51.72 99.86 54.47L115.48 42.77C115.48 42.77 112.76 39.89 105.43 36.86C105.29 36.86 105.29 36.86 105.29 36.72C105.16 36.72 105.02 36.58 104.88 36.58C104.34 36.45 103.8 36.17 103.26 35.9C102.44 35.62 101.76 35.35 100.95 35.07C100.4 34.93 99.86 34.66 99.18 34.52C99.04 34.52 99.04 34.52 99.04 34.52C93.88 33.14 88.04 32.32 81.8 32.32C68.63 32.32 57.9 35.48 49.88 41.67C41.87 47.87 37.8 55.71 37.8 65.06C37.8 74.28 41.87 81.98 50.16 88.31C57.22 93.67 65.77 96.7 75.82 97.53C78.27 97.66 95.79 98.21 105.29 87.62L105.29 96.56L107.6 96.56L112.22 96.56L123.63 96.56L123.63 75.93L123.63 73.73L123.63 70.98L123.63 70.42L123.63 70.29L123.63 66.44Z" fill="#EAEFF7" fill-opacity="1.000000" fill-rule="nonzero"/>
</svg>
