<svg width="160.000000" height="197.000000" viewBox="0 0 160 197" fill="none" xmlns="http://www.w3.org/2000/svg" xmlns:xlink="http://www.w3.org/1999/xlink">
	<desc>
			Created with Pixso.
	</desc>
	<defs>
		<linearGradient id="paint_linear_607_1530_0" x1="75.027710" y1="75.991936" x2="75.027710" y2="91.281013" gradientUnits="userSpaceOnUse">
			<stop stop-color="#F9BB87"/>
			<stop offset="1.000000" stop-color="#E76266"/>
		</linearGradient>
		<linearGradient id="paint_linear_607_1532_0" x1="75.556396" y1="83.843445" x2="75.556396" y2="90.720070" gradientUnits="userSpaceOnUse">
			<stop stop-color="#F4A47E"/>
			<stop offset="0.230000" stop-color="#F29A7A"/>
			<stop offset="0.620000" stop-color="#ED8171"/>
			<stop offset="1.000000" stop-color="#E76266"/>
		</linearGradient>
		<linearGradient id="paint_linear_607_1533_0" x1="75.556396" y1="83.848640" x2="75.556396" y2="90.717987" gradientUnits="userSpaceOnUse">
			<stop stop-color="#F4A47E"/>
			<stop offset="0.230000" stop-color="#F29A7A"/>
			<stop offset="0.620000" stop-color="#ED8171"/>
			<stop offset="1.000000" stop-color="#E76266"/>
		</linearGradient>
		<linearGradient id="paint_linear_607_1534_0" x1="75.047455" y1="84.641174" x2="75.047455" y2="90.757660" gradientUnits="userSpaceOnUse">
			<stop stop-color="#F4A47E"/>
			<stop offset="0.230000" stop-color="#F29A7A"/>
			<stop offset="0.620000" stop-color="#ED8171"/>
			<stop offset="1.000000" stop-color="#E76266"/>
		</linearGradient>
		<linearGradient id="paint_linear_607_1535_0" x1="0.815377" y1="84.645905" x2="2.425675" y2="90.755318" gradientUnits="userSpaceOnUse">
			<stop stop-color="#F4A47E"/>
			<stop offset="0.230000" stop-color="#F29A7A"/>
			<stop offset="0.620000" stop-color="#ED8171"/>
			<stop offset="1.000000" stop-color="#E76266"/>
		</linearGradient>
		<linearGradient id="paint_linear_607_1536_0" x1="75.555077" y1="85.435005" x2="75.555077" y2="90.791351" gradientUnits="userSpaceOnUse">
			<stop stop-color="#F4A47E"/>
			<stop offset="0.230000" stop-color="#F29A7A"/>
			<stop offset="0.620000" stop-color="#ED8171"/>
			<stop offset="1.000000" stop-color="#E76266"/>
		</linearGradient>
		<linearGradient id="paint_linear_607_1537_0" x1="75.555077" y1="85.270462" x2="75.555077" y2="89.855789" gradientUnits="userSpaceOnUse">
			<stop stop-color="#F4A47E"/>
			<stop offset="0.230000" stop-color="#F29A7A"/>
			<stop offset="0.620000" stop-color="#ED8171"/>
			<stop offset="1.000000" stop-color="#E76266"/>
		</linearGradient>
		<linearGradient id="paint_linear_607_1538_0" x1="75.538506" y1="86.250412" x2="75.538506" y2="90.846619" gradientUnits="userSpaceOnUse">
			<stop stop-color="#F4A47E"/>
			<stop offset="0.230000" stop-color="#F29A7A"/>
			<stop offset="0.620000" stop-color="#ED8171"/>
			<stop offset="1.000000" stop-color="#E76266"/>
		</linearGradient>
		<linearGradient id="paint_linear_607_1539_0" x1="75.061249" y1="86.068626" x2="75.061249" y2="89.892677" gradientUnits="userSpaceOnUse">
			<stop stop-color="#F4A47E"/>
			<stop offset="0.230000" stop-color="#F29A7A"/>
			<stop offset="0.620000" stop-color="#ED8171"/>
			<stop offset="1.000000" stop-color="#E76266"/>
		</linearGradient>
		<linearGradient id="paint_linear_607_1540_0" x1="76.049522" y1="87.061729" x2="76.049522" y2="90.879349" gradientUnits="userSpaceOnUse">
			<stop stop-color="#F4A47E"/>
			<stop offset="0.230000" stop-color="#F29A7A"/>
			<stop offset="0.620000" stop-color="#ED8171"/>
			<stop offset="1.000000" stop-color="#E76266"/>
		</linearGradient>
		<linearGradient id="paint_linear_607_1541_0" x1="76.049530" y1="87.047981" x2="76.049530" y2="90.877388" gradientUnits="userSpaceOnUse">
			<stop stop-color="#F4A47E"/>
			<stop offset="0.230000" stop-color="#F29A7A"/>
			<stop offset="0.620000" stop-color="#ED8171"/>
			<stop offset="1.000000" stop-color="#E76266"/>
		</linearGradient>
		<linearGradient id="paint_linear_607_1542_0" x1="75.555702" y1="86.867317" x2="75.555702" y2="89.924950" gradientUnits="userSpaceOnUse">
			<stop stop-color="#F4A47E"/>
			<stop offset="0.230000" stop-color="#F29A7A"/>
			<stop offset="0.620000" stop-color="#ED8171"/>
			<stop offset="1.000000" stop-color="#E76266"/>
		</linearGradient>
		<linearGradient id="paint_linear_607_1543_0" x1="75.539238" y1="87.857002" x2="75.539238" y2="90.896248" gradientUnits="userSpaceOnUse">
			<stop stop-color="#F4A47E"/>
			<stop offset="0.230000" stop-color="#F29A7A"/>
			<stop offset="0.620000" stop-color="#ED8171"/>
			<stop offset="1.000000" stop-color="#E76266"/>
		</linearGradient>
	</defs>
	<path id="Vector" d="M86.18 0C97.59 0.6 109.28 7.3 118.96 19.04C128.56 30.68 132.29 33.19 138.49 37.99C144.69 42.79 151.16 47.87 151.61 58.01C152.08 68.15 147.92 74.48 142.16 78.42C142.16 78.42 167.05 95.11 158.02 121.75C149.2 147.79 121.71 149.37 121.71 149.37C121.71 149.37 105.77 163.75 75.82 158.04C45.88 152.33 44.86 144.35 44.86 144.35C44.86 144.35 28.97 144.54 23.09 127.82C17.91 113.07 28.97 102.5 31.14 94.02C33.45 85 27.75 64.53 27.75 64.53C27.75 64.53 30.55 33.64 56.26 20.17C81.96 6.71 86.18 0 86.18 0Z" fill="#613648" fill-opacity="1.000000" fill-rule="nonzero"/>
	<path id="Vector" d="M128.18 148C141.46 141.81 143.9 127.42 129.4 117.33C114.89 107.24 111.91 97.3 112.31 85.21L31.44 84.14C31.76 87.8 31.75 91.26 31.11 93.81C28.94 102.32 17.93 112.92 23.08 127.71C28.94 144.49 44.78 144.3 44.78 144.3C44.78 144.3 45.79 152.32 75.64 158.03C105.49 163.76 121.37 149.34 121.37 149.34C121.37 149.34 124.15 149.17 128.21 148.12L128.18 148Z" fill="#512A3B" fill-opacity="1.000000" fill-rule="nonzero"/>
	<path id="Vector" d="M134.32 89.71C134.06 95.06 145.18 98.18 148.39 116.78C151.61 135.35 134.34 146.49 134.32 146.51C142.86 143.03 153.13 136.06 157.96 122.12C163.51 106.09 156.62 93.64 150.17 86.22C140.75 79.94 134.59 84.4 134.34 89.73L134.32 89.71Z" fill="#723E55" fill-opacity="1.000000" fill-rule="nonzero"/>
	<path id="Vector" d="M115.68 66.58C115.68 66.58 120.95 58.91 128.45 64.26C131.87 66.69 135.15 75.77 128.45 83.94C121.75 92.1 112.86 89.01 112.59 85.28L115.68 66.58Z" fill="#F9BF8F" fill-opacity="1.000000" fill-rule="nonzero"/>
	<path id="Vector" d="M128.3 64.18C126.16 62.76 124.19 62.3 122.46 62.37C123.37 62.43 127.61 63.04 129.67 68.65C131.47 73.55 130.95 78.56 128.3 83.15C135.26 75.28 131.85 66.54 128.3 64.19L128.3 64.18Z" fill="#FFDBC0" fill-opacity="1.000000" fill-rule="nonzero"/>
	<path id="Vector" d="M127.76 72.4C127.76 72.4 126.49 69.09 123.37 69.3C120.24 69.51 118.6 72.74 118.17 75.37C118.17 75.37 122.02 74.85 122.15 78.87C122.26 82.46 118.91 83.72 117.53 82.87C117.53 82.87 117.77 84.88 121.02 85.12C124.94 85.4 130.21 80.05 127.77 72.42L127.76 72.4Z" fill="#F38B67" fill-opacity="1.000000" fill-rule="nonzero"/>
	<path id="Vector" d="M58.41 140.58C56.96 141.37 54.71 141.34 51.99 140.98C51.22 141.82 29.28 165.89 23.7 191.76C36.07 194.51 53.4 196.99 75.55 196.99C97.7 196.99 115.03 194.49 127.4 191.76C121.82 165.87 99.88 141.82 99.11 140.98C96.39 141.32 94.14 141.35 92.68 140.57C95.88 145.49 104.27 160.23 106.1 165.34C107.92 170.46 108.51 171.51 102.74 172.78C96.97 174.04 92.06 174.91 86.71 177.94C82.76 180.19 78.35 182.42 75.55 182.42C72.75 182.42 68.34 180.19 64.39 177.94C59.04 174.91 54.15 174.06 48.36 172.78C42.59 171.49 43.18 170.46 45 165.34C46.83 160.23 55.22 145.49 58.41 140.58Z" fill="#FFE7E1" fill-opacity="1.000000" fill-rule="nonzero"/>
	<path id="Vector" d="M105.68 139.98C109.6 139.58 119.06 141.18 125.07 149.5C131.07 157.8 147.06 186.09 147.08 186.1C147.08 186.1 147.11 186.1 147.13 186.1L150.12 184.85C150.12 184.85 141.66 170.6 131.12 152.81C122.81 138.79 112.63 138.95 105.69 140L105.68 139.98Z" fill="#FFDBC0" fill-opacity="1.000000" fill-rule="nonzero"/>
	<path id="Vector" d="M89.87 197C105.3 196.21 117.84 194.25 127.4 192.14C121.82 166.35 99.87 142.39 99.1 141.56C99.1 141.56 113.79 162.96 116.63 174.33C119.42 185.6 107.02 195.94 89.89 197L89.87 197Z" fill="#FFF3F0" fill-opacity="1.000000" fill-rule="nonzero"/>
	<path id="Vector" d="M59.96 117.81C59.96 125.15 60.3 133.7 59.96 138.2C59.62 142.69 54.59 142.05 48.24 141.03C41.62 139.96 29.02 136.61 19.09 153.1C8.5 170.69 0 184.8 0 184.8C0 184.8 25.76 196.99 75.55 196.99C125.35 196.99 151.11 184.8 151.11 184.8C151.11 184.8 142.6 170.69 132.01 153.09C122.08 136.59 109.48 139.93 102.86 141.01C96.51 142.05 91.48 142.68 91.14 138.18C90.8 133.69 91.14 125.14 91.14 117.8L59.96 117.8L59.96 117.81Z" fill="#F9BF8F" fill-opacity="1.000000" fill-rule="nonzero"/>
	<path id="Vector" d="M48.24 140.62C41.62 139.55 29.02 136.17 19.09 152.78C8.5 170.5 0 184.72 0 184.72C0 184.72 25.76 197 75.55 197C125.35 197 151.11 184.72 151.11 184.72C151.11 184.72 142.6 170.5 132.01 152.77C122.08 136.15 109.48 139.52 102.86 140.6C101.41 140.84 98.51 141.59 92.77 140.17C83.44 146.91 81.33 147.96 75.55 147.98C70.53 148 69.81 146.79 59.04 140.17C53.3 141.59 50.56 140.99 48.24 140.62Z" fill="#3E726C" fill-opacity="1.000000" fill-rule="nonzero"/>
	<path id="Vector" d="M22.65 191.06L32.59 166.31C32.59 166.31 19.99 181.21 16.79 189.66C18.6 190.13 20.56 190.59 22.65 191.06Z" fill="#2A4C51" fill-opacity="1.000000" fill-rule="nonzero"/>
	<path id="Vector" d="M128.45 191.06L118.51 166.31C118.51 166.31 131.11 181.21 134.32 189.66C132.5 190.13 130.55 190.59 128.45 191.06Z" fill="#2A4C51" fill-opacity="1.000000" fill-rule="nonzero"/>
	<path id="Vector" d="M90.81 123.19C90.83 121.37 90.86 119.55 90.86 117.8L60.24 117.8C60.24 124.32 60.5 131.78 60.34 136.6C85.06 136.44 90.81 123.21 90.83 123.19L90.81 123.19Z" fill="#F38B67" fill-opacity="1.000000" fill-rule="nonzero"/>
	<path id="Vector" d="M105.68 139.98C109.69 139.58 119.36 141.18 125.5 149.5C131.63 157.8 147.98 186.09 148 186.1C148 186.1 148.03 186.1 148.05 186.1L151.11 184.85C151.11 184.85 142.45 170.6 131.68 152.81C123.19 138.79 112.78 138.95 105.69 140L105.68 139.98Z" fill="#365E61" fill-opacity="1.000000" fill-rule="nonzero"/>
	<path id="Vector" d="M89.87 197C105.3 196.21 117.84 194.25 127.4 192.14C121.82 166.35 99.87 142.39 99.1 141.56C99.1 141.56 113.79 162.96 116.63 174.33C119.42 185.6 107.02 195.94 89.89 197L89.87 197Z" fill="#365E61" fill-opacity="1.000000" fill-rule="nonzero"/>
	<path id="Vector" d="M75.55 122.75C65.5 122.75 53.74 114.94 45.93 102.49C38.1 90.04 35.55 71.43 35.55 62.6C35.55 40.59 53.45 22.76 75.55 22.76C97.65 22.76 115.55 40.59 115.55 62.6C115.55 71.43 113 90.04 105.17 102.49C97.34 114.94 85.59 122.75 75.55 122.75Z" fill="#F9BF8F" fill-opacity="1.000000" fill-rule="nonzero"/>
	<path id="Vector" d="M58.01 30.68C58.01 30.68 60.4 47.05 50.48 57.23C40.55 67.42 35.55 66.28 35.55 66.28L58.01 30.7L58.01 30.68Z" fill="#F38B67" fill-opacity="1.000000" fill-rule="nonzero"/>
	<path id="Vector" d="M57.28 29.69C57.28 29.69 62.77 38.05 74.14 43.32C85.87 48.78 107.81 51.28 110.61 59.39C110.61 59.39 110.61 49.3 93.51 41.28C80.8 35.3 57.28 29.71 57.28 29.71L57.28 29.69Z" fill="#F38B67" fill-opacity="1.000000" fill-rule="nonzero"/>
	<path id="Vector" d="M112.6 72.68C111.15 91.52 100.92 107.27 94.82 112.82C88.94 118.19 82.74 121.15 77.03 122.75C86.77 122.03 97.81 114.39 105.28 102.5C109.92 95.1 112.71 85.55 114.21 77.14L115.55 66.32L112.58 72.68L112.6 72.68Z" fill="#FFDBC0" fill-opacity="1.000000" fill-rule="nonzero"/>
	<path id="Vector" d="M81.58 86.38C80.64 84.08 77.65 72.26 75.04 72.26C72.42 72.26 69.42 84.08 68.5 86.38C67.57 88.69 68.77 89.55 68.77 89.55L70.07 89.32C70.07 89.32 73.4 92.06 75.05 92.06C76.71 92.06 80.03 89.32 80.03 89.32L81.33 89.55C81.33 89.55 82.56 88.69 81.61 86.38L81.58 86.38Z" fill="url(#paint_linear_607_1530_0)" fill-opacity="1.000000" fill-rule="nonzero"/>
	<g opacity="0.000000">
		<path id="Vector" d="M72.09 86.42C72.09 84.07 73.64 82.16 75.55 82.16C77.46 82.16 79.01 84.07 79.01 86.42C79.01 88.77 77.46 91.07 75.55 91.07C73.64 91.07 72.09 88.79 72.09 86.42Z" fill="url(#paint_linear_607_1532_0)" fill-opacity="1.000000" fill-rule="nonzero"/>
	</g>
	<g opacity="0.060000">
		<path id="Vector" d="M72.09 86.43C72.09 84.07 73.65 82.16 75.55 82.16C77.46 82.16 79.01 84.07 79.01 86.43C79.01 88.78 77.46 91.07 75.55 91.07C73.65 91.07 72.09 88.78 72.09 86.43Z" fill="url(#paint_linear_607_1533_0)" fill-opacity="1.000000" fill-rule="nonzero"/>
	</g>
	<g opacity="0.130000">
		<path id="Vector" d="M72.09 86.95C72.09 84.85 73.42 83.15 75.06 83.15C76.69 83.15 78.02 84.85 78.02 86.95C78.02 89.06 76.69 91.07 75.06 91.07C73.42 91.07 72.09 89.06 72.09 86.95Z" fill="url(#paint_linear_607_1534_0)" fill-opacity="1.000000" fill-rule="nonzero"/>
	</g>
	<g opacity="0.190000">
		<path id="Vector" d="M73.08 86.96C73.08 84.85 74.4 83.15 76.04 83.15C77.69 83.15 79.01 84.87 79.01 86.96C79.01 89.05 77.69 91.07 76.04 91.07C74.4 91.07 73.08 89.07 73.08 86.96Z" fill="url(#paint_linear_607_1535_0)" fill-opacity="1.000000" fill-rule="nonzero"/>
	</g>
	<g opacity="0.250000">
		<path id="Vector" d="M73.08 87.48C73.08 85.64 74.19 84.14 75.55 84.14C76.91 84.14 78.02 85.64 78.02 87.48C78.02 89.32 76.91 91.07 75.55 91.07C74.19 91.07 73.08 89.33 73.08 87.48Z" fill="url(#paint_linear_607_1536_0)" fill-opacity="1.000000" fill-rule="nonzero"/>
	</g>
	<g opacity="0.320000">
		<path id="Vector" d="M73.08 87.01C73.08 85.43 74.19 84.14 75.55 84.14C76.91 84.14 78.02 85.43 78.02 87.01C78.02 88.59 76.91 90.08 75.55 90.08C74.19 90.08 73.08 88.59 73.08 87.01Z" fill="url(#paint_linear_607_1537_0)" fill-opacity="1.000000" fill-rule="nonzero"/>
	</g>
	<g opacity="0.380000">
		<path id="Vector" d="M73.08 88.01C73.08 86.42 74.19 85.13 75.55 85.13C76.91 85.13 78.02 86.42 78.02 88.01C78.02 89.6 76.91 91.07 75.55 91.07C74.19 91.07 73.08 89.6 73.08 88.01Z" fill="url(#paint_linear_607_1538_0)" fill-opacity="1.000000" fill-rule="nonzero"/>
	</g>
	<g opacity="0.450000">
		<path id="Vector" d="M73.08 87.54C73.08 86.21 73.96 85.13 75.06 85.13C76.15 85.13 77.03 86.21 77.03 87.54C77.03 88.87 76.15 90.08 75.06 90.08C73.96 90.08 73.08 88.87 73.08 87.54Z" fill="url(#paint_linear_607_1539_0)" fill-opacity="1.000000" fill-rule="nonzero"/>
	</g>
	<g opacity="0.510000">
		<path id="Vector" d="M74.07 88.54C74.07 87.2 74.95 86.12 76.04 86.12C77.14 86.12 78.02 87.22 78.02 88.54C78.02 89.87 77.14 91.07 76.04 91.07C74.95 91.07 74.07 89.89 74.07 88.54Z" fill="url(#paint_linear_607_1540_0)" fill-opacity="1.000000" fill-rule="nonzero"/>
	</g>
	<g opacity="0.570000">
		<path id="Vector" d="M74.07 88.55C74.07 87.2 74.96 86.12 76.04 86.12C77.13 86.12 78.02 87.22 78.02 88.55C78.02 89.89 77.13 91.07 76.04 91.07C74.96 91.07 74.07 89.89 74.07 88.55Z" fill="url(#paint_linear_607_1541_0)" fill-opacity="1.000000" fill-rule="nonzero"/>
	</g>
	<g opacity="0.640000">
		<path id="Vector" d="M74.07 88.08C74.07 86.99 74.73 86.12 75.55 86.12C76.37 86.12 77.03 87 77.03 88.08C77.03 89.16 76.37 90.08 75.55 90.08C74.73 90.08 74.07 89.16 74.07 88.08Z" fill="url(#paint_linear_607_1542_0)" fill-opacity="1.000000" fill-rule="nonzero"/>
	</g>
	<g opacity="0.700000">
		<path id="Vector" d="M74.07 89.09C74.07 88.01 74.73 87.11 75.55 87.11C76.37 87.11 77.03 87.99 77.03 89.09C77.03 90.19 76.37 91.07 75.55 91.07C74.73 91.07 74.07 90.19 74.07 89.09Z" fill="url(#paint_linear_607_1543_0)" fill-opacity="1.000000" fill-rule="nonzero"/>
	</g>
	<g opacity="0.300000">
		<path id="Vector" d="M77.97 86.91C78.14 87.45 77.85 87.98 77.34 88.08C76.82 88.19 76.27 87.85 76.09 87.31C75.93 86.77 76.21 86.24 76.72 86.14C77.22 86.04 77.79 86.36 77.97 86.91Z" fill="#FFFFFF" fill-opacity="1.000000" fill-rule="nonzero"/>
	</g>
	<path id="Vector" d="M76.04 88.6C76.04 88.33 76.27 88.1 76.54 88.1C76.81 88.1 77.03 88.33 77.03 88.6C77.03 88.86 76.81 89.09 76.54 89.09C76.27 89.09 76.04 88.86 76.04 88.6Z" fill="#FFFFFF" fill-opacity="1.000000" fill-rule="nonzero"/>
	<path id="Vector" d="M78.98 90.13C78.38 90.01 77.71 90.11 77.15 90.47C76.23 91.09 75.41 91.8 74.56 91.8C73.71 91.8 72.91 91.07 71.99 90.47C71.43 90.11 70.77 90.01 70.16 90.13C70.13 90.13 70.1 90.23 70.14 90.25C71.75 90.47 72.58 92.38 74.08 92.96C74.41 93.08 74.72 93.08 75.05 92.96C76.54 92.38 77.39 90.47 79 90.25C79.02 90.25 79 90.15 78.98 90.13Z" fill="#512A3B" fill-opacity="1.000000" fill-rule="nonzero"/>
	<path id="Vector" d="M79.46 90.08C79.84 90.04 80.38 89.98 81.04 89.73C81.75 89.48 82.59 88.41 81.3 88.15C80.23 87.93 79.51 88.51 79.07 88.98C78.72 89.36 78.6 89.79 78.02 90.08L79.46 90.08Z" fill="#512A3B" fill-opacity="1.000000" fill-rule="nonzero"/>
	<path id="Vector" d="M70.65 90.08C70.28 90.04 69.74 89.98 69.07 89.73C68.36 89.48 67.53 88.41 68.82 88.15C69.89 87.93 70.6 88.51 71.04 88.98C71.4 89.36 71.52 89.79 72.09 90.08L70.65 90.08Z" fill="#512A3B" fill-opacity="1.000000" fill-rule="nonzero"/>
	<path id="Vector" d="M65.17 51.05C64.86 53.05 59.53 51.38 53.63 53.69C49.06 55.48 45.97 58.39 44.24 61.17C43.97 61.6 43.33 61.29 43.47 60.8C44.13 58.39 45.38 54.35 50.11 51.48C57.92 46.75 65.55 48.47 65.17 51.05Z" fill="#512A3B" fill-opacity="1.000000" fill-rule="nonzero"/>
	<path id="Vector" d="M57.49 29.15C57.49 29.15 59.24 52.92 35.45 68.3L27.47 64.55C27.47 64.55 23.93 50.53 24.83 40.87C25.73 31.21 32.65 17.02 53.32 16.46C53.32 16.46 64.25 -1.61 85.73 0.11C115.38 2.48 126.38 40.23 115.24 66.51C115.24 66.51 113.76 56.14 103.17 50.77C92.55 45.41 69.9 42.01 57.5 29.14L57.49 29.15Z" fill="#613648" fill-opacity="1.000000" fill-rule="nonzero"/>
	<path id="Vector" d="M35.2 66.98C43.95 50.65 35.08 48.34 32.38 35.31C31.56 31.36 34.21 23.11 39.5 19.8C29.34 24.51 25.48 34.19 24.83 41.37C23.96 51.02 27.37 65.02 27.37 65.02L34.13 68.3C34.49 67.89 34.92 67.51 35.2 66.98Z" fill="#512A3B" fill-opacity="1.000000" fill-rule="nonzero"/>
	<path id="Vector" d="M151.07 57.88C150.6 47.78 144.14 42.71 137.93 37.94C131.73 33.16 127.99 30.66 118.38 19.07C108.73 7.42 97.09 0.76 85.73 0.11C85.68 0.11 85.65 0.11 85.6 0.11C76.6 -0.61 69.46 2.12 64.19 5.53C76.68 0.54 92.17 0.83 102.51 11.42C110.19 19.3 116.18 34.64 128.02 42.92C139.75 51.11 156.94 63.69 141.61 78.2C147.38 74.28 151.54 67.98 151.07 57.88Z" fill="#723E55" fill-opacity="1.000000" fill-rule="nonzero"/>
	<path id="Vector" d="M117.51 47.95L116.63 65.18C116.63 65.18 115.72 75.81 114.52 77.93C113.65 79.5 112.74 74.11 112.43 66.16C112.13 58.21 109.62 54.79 109.62 54.79L117.52 47.51L117.51 47.95Z" fill="#613648" fill-opacity="1.000000" fill-rule="nonzero"/>
	<path id="Vector" d="M36.25 65.59C36.25 65.59 30.72 57.91 22.84 63.27C19.26 65.7 15.81 74.78 22.84 82.94C29.88 91.11 39.22 88.01 39.5 84.29L36.25 65.59Z" fill="#F9BF8F" fill-opacity="1.000000" fill-rule="nonzero"/>
	<path id="Vector" d="M35.11 65.44C35.11 65.44 29.85 58.03 22.36 63.2C21.81 63.58 21.26 64.16 20.74 64.87C25.52 60.98 32.38 62.51 35.44 69.29L35.55 68.13L35.09 65.44L35.11 65.44Z" fill="#F38B67" fill-opacity="1.000000" fill-rule="nonzero"/>
	<path id="Vector" d="M35.55 65.64C35.55 65.64 36.14 74.23 37.25 77.75C38.37 81.26 40.49 63.35 40.49 63.35L35.55 65.66L35.55 65.64Z" fill="#613648" fill-opacity="1.000000" fill-rule="nonzero"/>
	<path id="Vector" d="M23.35 71.41C23.35 71.41 24.61 68.1 27.74 68.31C30.86 68.53 32.5 71.75 32.93 74.38C32.93 74.38 29.08 73.86 28.95 77.89C28.85 81.48 32.19 82.73 33.58 81.88C33.58 81.88 33.33 83.89 30.08 84.13C26.16 84.41 20.9 79.06 23.33 71.43L23.35 71.41Z" fill="#F38B67" fill-opacity="1.000000" fill-rule="nonzero"/>
	<path id="Vector" d="M55.19 84.34C54.52 86.61 51.15 87.71 47.67 86.78C44.19 85.85 41.91 83.26 42.58 80.97C43.24 78.69 46.61 77.6 50.09 78.54C53.58 79.47 55.85 82.06 55.19 84.34Z" fill="#E76266" fill-opacity="1.000000" fill-rule="nonzero"/>
	<path id="Vector" d="M95.91 84.34C96.58 86.61 99.95 87.71 103.43 86.78C106.91 85.85 109.19 83.26 108.52 80.97C107.86 78.7 104.49 77.6 101.01 78.53C97.53 79.47 95.25 82.05 95.91 84.34Z" fill="#E76266" fill-opacity="1.000000" fill-rule="nonzero"/>
	<path id="Vector" d="M84.93 73.17C84.93 73.17 85.83 68.38 87.64 65.77C89.44 63.16 93.96 59.37 100.94 62.63C107.91 65.88 106.56 73.25 106.56 73.25C106.56 73.25 104.3 68.87 95.81 68.65C89.08 68.47 84.93 73.19 84.93 73.19L84.93 73.17Z" fill="#F38B67" fill-opacity="1.000000" fill-rule="nonzero"/>
	<path id="Vector" d="M85.24 73.7C85.96 73.58 86.66 72.87 90.42 71.76C93.74 70.78 95.91 70.81 98.94 71.52C101.96 72.22 103.6 73.44 104.88 74.51C105.82 75.3 107.16 75.9 106.47 73.73C105.77 71.55 102.33 68.76 97.47 68.39C92.62 68.01 89.71 68.87 86.72 71.3C84.71 72.94 84.69 73.8 85.24 73.71L85.24 73.7Z" fill="#422030" fill-opacity="1.000000" fill-rule="nonzero"/>
	<path id="Vector" d="M104.69 70.3C104.69 70.3 106.18 71.2 107.17 71.18C109.24 71.15 109.18 69.97 109.55 70.53C109.91 71.09 109.03 73.16 106.06 73.25L104.69 70.28L104.69 70.3Z" fill="#422030" fill-opacity="1.000000" fill-rule="nonzero"/>
	<path id="Vector" d="M67.16 73.17C67.16 73.17 66.26 68.38 64.44 65.77C62.65 63.16 58.12 59.37 51.15 62.63C44.18 65.88 45.53 73.25 45.53 73.25C45.53 73.25 47.79 68.87 56.28 68.65C63.01 68.47 67.16 73.19 67.16 73.19L67.16 73.17Z" fill="#F38B67" fill-opacity="1.000000" fill-rule="nonzero"/>
	<path id="Vector" d="M66.84 73.7C66.13 73.58 65.43 72.87 61.66 71.76C58.35 70.78 56.17 70.81 53.15 71.52C50.13 72.22 48.49 73.44 47.21 74.51C46.26 75.3 44.93 75.9 45.61 73.73C46.31 71.55 49.76 68.76 54.61 68.39C59.47 68.01 62.38 68.87 65.37 71.3C67.38 72.94 67.4 73.8 66.84 73.71L66.84 73.7Z" fill="#422030" fill-opacity="1.000000" fill-rule="nonzero"/>
	<path id="Vector" d="M47.4 70.3C47.4 70.3 45.91 71.2 44.92 71.18C42.85 71.15 42.91 69.97 42.54 70.53C42.18 71.09 43.06 73.16 46.03 73.25L47.4 70.28L47.4 70.3Z" fill="#422030" fill-opacity="1.000000" fill-rule="nonzero"/>
	<path id="Vector" d="M84.95 51.05C85.25 53.05 90.58 51.38 96.49 53.69C101.05 55.48 104.14 58.39 105.88 61.17C106.15 61.6 106.78 61.29 106.64 60.8C105.99 58.39 104.73 54.35 100 51.48C92.19 46.75 84.56 48.47 84.95 51.05Z" fill="#512A3B" fill-opacity="1.000000" fill-rule="nonzero"/>
</svg>
