<svg width="20.000000" height="33.000000" viewBox="0 0 20 33" fill="none" xmlns="http://www.w3.org/2000/svg" xmlns:xlink="http://www.w3.org/1999/xlink">
	<desc>
			Created with Pixso.
	</desc>
	<defs/>
	<path id="Vector" d="M18.66 18.92C18.63 17.68 18.42 16.42 18.17 15.26C18.06 14.63 17.9 14.01 17.7 13.41L17.7 13.4C16.73 10.41 14.94 7.67 14.59 4.5C14.58 3.56 14.04 2.69 12.98 2.77C13.18 5.87 14.13 8.92 15.6 11.67C13.51 8.65 12.98 4.93 12.5 1.4C12.08 0.17 10.5 0.55 9.57 0.88C9.68 2.15 9.88 3.41 10.17 4.66C10.7 6.98 11.48 9.25 12.36 11.48C11.22 9.41 10.52 7.16 10.02 4.87C9.72 3.48 9.5 2.06 9.29 0.65C9.08 -1.24 5.77 -1.02 5.64 0.81C5.74 3.23 6.24 5.62 6.94 7.94C7.23 8.9 7.55 9.85 7.89 10.78C7.55 10.62 7.2 10.37 6.84 10.1C5.94 9.43 4.99 8.72 3.98 9.49C2.64 10.79 1.43 12.23 0.17 13.55C-1.26 14.98 1.25 17.24 2.75 16.27C3.63 15.52 4.37 14.6 5.16 13.73C5.68 14.11 6.18 14.5 6.66 14.92C7.46 15.6 8.17 16.36 8.78 17.2C9.7 18.57 8.06 20.66 6.49 20.19C6.4 20.17 6.33 20.14 6.25 20.1C4.94 19.16 4.03 17.77 2.74 16.8C1.47 16.06 -0.33 17.54 -0.09 18.82C-0.03 19.12 0.13 19.39 0.36 19.59C1.41 20.59 2.36 21.76 3.38 22.84C4.16 23.68 5 24.46 5.95 25.05L6.17 25.27L6.35 25.67C6.4 25.78 6.49 25.87 6.59 25.94C6.69 26 6.81 26.05 6.93 26.06C6.95 26.07 6.98 26.07 7 26.07L15.85 26.3C16.24 26.3 16.62 26.22 16.97 26.04C17.31 25.87 17.61 25.61 17.82 25.3C17.99 24.85 18.12 24.39 18.21 23.91C18.34 23.19 18.43 22.47 18.49 21.74C18.5 21.45 18.5 21.16 18.52 20.88C18.63 20.23 18.67 19.58 18.66 18.92Z" fill="#FFFFFF" fill-opacity="1.000000" fill-rule="nonzero"/>
	<path id="Vector" d="M7.04 26.66L17.25 26.92C17.5 26.92 17.75 27.03 17.93 27.21C18.1 27.39 18.2 27.64 18.19 27.89L18.1 31.66C18.09 31.78 18.07 31.91 18.01 32.02C17.96 32.13 17.89 32.23 17.8 32.32C17.7 32.41 17.59 32.47 17.47 32.51C17.35 32.56 17.23 32.58 17.1 32.58L6.89 32.32C6.63 32.31 6.39 32.21 6.21 32.02C6.03 31.84 5.94 31.6 5.94 31.35L6.04 27.58C6.04 27.45 6.07 27.33 6.12 27.22C6.17 27.1 6.25 27 6.34 26.92C6.43 26.83 6.54 26.76 6.66 26.72C6.78 26.67 6.91 26.66 7.04 26.66Z" fill="#FFFFFF" fill-opacity="1.000000" fill-rule="nonzero"/>
</svg>
