<svg width="24.000000" height="23.000000" viewBox="0 0 24 23" fill="none" xmlns="http://www.w3.org/2000/svg" xmlns:xlink="http://www.w3.org/1999/xlink">
	<desc>
			Created with Pixso.
	</desc>
	<defs/>
	<path id="Vector" d="M15.29 8.62C15.29 8.62 15.27 8.8 15.25 9.1C14.37 10.52 14.61 13.81 14.66 14.21C14.73 14.69 16.03 17.76 16.1 18.32C16.16 18.88 14.6 20.5 12.38 17.17C10.16 13.83 11.46 12.78 11.46 12.78L10.29 13.26L5.59 15.71C5.01 16.01 4.27 15.72 3.93 15.06C3.47 14.18 4.63 13.23 3.96 13.48C3.65 13.64 3.28 13.67 2.94 13.57C2.6 13.46 2.32 13.23 2.16 12.91C1.99 12.6 1.96 12.23 2.07 11.89C2.17 11.55 2.7 11.36 2.72 11.1C2.74 10.85 1.75 10.87 1.46 10.32C1.12 9.67 1.32 8.89 1.9 8.59C2.55 8.25 1.44 8.25 1.1 7.61C0.76 6.95 0.89 6.21 1.4 5.94L4.33 4.41C5.42 3.76 6.74 3.02 7.85 2.58C9.51 1.92 10.68 1.8 11.61 1.73C12.12 1.69 12.55 1.66 12.95 1.57C12.98 1.56 13.01 1.55 13.04 1.56C13.07 1.56 13.1 1.57 13.12 1.58C13.15 1.59 13.17 1.61 13.19 1.63C13.21 1.65 13.23 1.68 13.24 1.71L15.8 8.14C15.92 8.45 15.25 8.53 15.29 8.62Z" fill="#FFFFFF" fill-opacity="1.000000" fill-rule="nonzero"/>
	<path id="Vector" d="M16.57 9.01L19.16 7.98C19.52 7.83 19.69 7.43 19.55 7.07L16.83 0.25C16.69 -0.11 16.29 -0.29 15.93 -0.15L13.33 0.89C12.98 1.03 12.8 1.44 12.94 1.8L15.66 8.62C15.8 8.98 16.21 9.15 16.57 9.01Z" fill="#FFFFFF" fill-opacity="1.000000" fill-rule="evenodd"/>
</svg>
